<svg width="300" height="300" viewBox="0 0 300 300" fill="none" xmlns="http://www.w3.org/2000/svg">
<path d="M96.0697 56.0981C104.163 47.994 117.284 47.994 125.377 56.0981L283.636 214.574C291.729 222.679 291.729 235.818 283.636 243.922C275.543 252.026 262.421 252.026 254.329 243.922L96.0697 85.4456C87.9768 77.3415 87.9768 64.2022 96.0697 56.0981Z" fill="black"/>
<path d="M96.3643 243.902C88.2713 235.798 88.2713 222.658 96.3643 214.554L254.623 56.0781C262.716 47.974 275.837 47.974 283.93 56.0781C292.023 64.1821 292.023 77.3214 283.93 85.4255L125.671 243.902C117.578 252.006 104.457 252.006 96.3643 243.902Z" fill="black"/>
</svg>
